<?xml version="1.0" encoding="iso-8859-1"?>
<!-- Generator: Adobe Illustrator 21.1.0, SVG Export Plug-In . SVG Version: 6.00 Build 0)  -->
<svg version="1.1" id="Layer_1" xmlns="http://www.w3.org/2000/svg" xmlns:xlink="http://www.w3.org/1999/xlink" x="0px" y="0px"
	 viewBox="0 0 24 24" enable-background="new 0 0 24 24" xml:space="preserve">
<g>
	<path fill="#303C42" d="M23.5,0h-3.6992188c-0.9882908,0-1.8398438,0.7382813-1.9794922,1.7172852L17.3522339,5h-8.402771
		C8.6970215,2.7561646,6.8102417,1,4.5,1C2.0185547,1,0,3.0185547,0,5.5c0,2.4803467,2.0167236,4.4978638,4.4967041,4.4996948
		l1.3577881,12.2214966C5.9677734,23.2353516,6.8232422,24,7.8427734,24h8.3144531c1.0195313,0,1.875-0.7646484,1.9882813-1.7792969
		l1.8515625-16.6655273c0.015625-0.1411133-0.0292969-0.2827148-0.1240234-0.3886719C19.7773438,5.0605469,19.6425781,5,19.5,5
		h-1.1372681l0.4487915-3.1411133C18.8808594,1.3691406,19.3066406,1,19.8007813,1H23.5C23.7763672,1,24,0.7763672,24,0.5
		S23.7763672,0,23.5,0z"/>
	<path fill="#F3F3F3" d="M12.7823486,8L9.6494141,7.0224609C9.3818359,6.9404297,9.1054688,7.0878906,9.0224609,7.3510742
		L8.8200073,8H5.2808228l-0.222229-2h12.1508179L16.923645,8H12.7823486z"/>
	
		<rect x="9.3137417" y="8.5046816" transform="matrix(0.2978117 -0.9546247 0.9546247 0.2978117 -1.9578104 17.3481236)" fill="#FFF3E1" width="2.9994698" height="3.0004022"/>
	<path opacity="0.1" fill="#010101" d="M12.045166,8.8181152l-0.3938599,1.262146
		c-0.1585693,0.5079346-0.6988525,0.7912598-1.2067871,0.6328125l-1.2973022-0.4047241l-0.2126465,0.6813965l2.8642578,0.8935547
		l0.8935547-2.8632813L12.045166,8.8181152z"/>
	<path fill="#CEDC38" d="M1,5.5C1,3.5703125,2.5703125,2,4.5,2c1.7584839,0,3.2042236,1.3083496,3.4494629,3H4.5
		C4.3574219,5,4.2226563,5.0605469,4.1269531,5.1665039c-0.0947266,0.105957-0.1396484,0.2475586-0.1240234,0.3886719
		l0.3814087,3.4331055C2.5092163,8.9256592,1,7.3900757,1,5.5z"/>
	<path opacity="0.2" fill="#FFFFFF" d="M2,6.5117188c0-1.9296875,1.5703125-3.5,3.5-3.5
		c0.7057495,0,1.3557129,0.2178955,1.9033203,0.5795288C6.7811279,2.638855,5.7213745,2,4.5,2C2.5703125,2,1,3.5703125,1,5.5
		c0,1.2092896,0.6213989,2.2680054,1.5575562,2.894165C2.2067871,7.8508911,2,7.2061768,2,6.5117188z"/>
	<path fill="#303C42" d="M6.8486328,22.1103516l-0.1104126-0.9937134L8.6212158,23H7.8427734
		C7.3330078,23,6.9052734,22.6171875,6.8486328,22.1103516z"/>
	
		<rect x="8.32827" y="19.1714096" transform="matrix(0.7071881 -0.7070254 0.7070254 0.7071881 -11.7374191 13.00177)" fill="#FFF3E1" width="3.0001974" height="3.0001974"/>
	<path opacity="0.1" fill="#010101" d="M10.5276051,21.0931511c-0.3588066,0.3587227-0.9404774,0.3586559-1.299202-0.0001488
		l-0.971384-0.9716034l-0.5499878,0.5499878l2.1210938,2.121582l2.1220703-2.121582l-0.5004272-0.5001831L10.5276051,21.0931511z"/>
	<path fill="#FAA629" d="M17.1513672,22.1098633C17.0947266,22.6171875,16.6669922,23,16.1572266,23h-5.1219482l1.9754639-1.9750977
		c0.09375-0.09375,0.1464844-0.2207031,0.1464844-0.3535156s-0.0527344-0.2597656-0.1464844-0.3535156L11.6924438,19H14.5
		c0.2763672,0,0.5-0.2236328,0.5-0.5v-4c0-0.2763672-0.2236328-0.5-0.5-0.5h-4c-0.2763672,0-0.5,0.2236328-0.5,0.5v2.876709
		c-0.1771851-0.0650024-0.3831177-0.0292358-0.5253906,0.1130371l-2.8254395,2.8254395L5.3919067,9h3.1160278l-0.6768799,2.1694336
		c-0.0820313,0.2636719,0.0654297,0.5439453,0.328125,0.6264648l3.8183594,1.1914063
		c0.0498047,0.0151367,0.1005859,0.0224609,0.1494141,0.0224609c0.2128906,0,0.4101563-0.137207,0.4775391-0.3510742L13.7460938,9
		h3.034668l-1.7758789,12.4291992c-0.0390625,0.2734375,0.1513672,0.5268555,0.4248047,0.565918
		C15.453125,21.9985352,15.4775391,22,15.5009766,22c0.2441406,0,0.4580078-0.1796875,0.4941406-0.4291992L17.7911987,9h0.8168945
		L17.1513672,22.1098633z"/>
	<path opacity="0.1" fill="#010101" d="M17.7911987,9l-0.8373413,5.8604126l-0.694397,6.2494507
		c-0.0278931,0.2495728-0.1469727,0.4676514-0.3200684,0.6262207C15.8535767,21.8955078,15.6865845,22,15.5009766,22
		c-0.0234375,0-0.0478516-0.0014648-0.0712891-0.0048828c-0.017395-0.0025024-0.0309448-0.0127563-0.0476685-0.0169067
		C15.3422241,21.9830322,15.3063354,22,15.2653198,22h-3.2298584l-1.0001831,1h5.1219482
		c0.5097656,0,0.9375-0.3828125,0.9941406-0.8901367L18.6080933,9H17.7911987z"/>
	<rect x="11" y="15" fill="#FFF3E1" width="3" height="3"/>
	<path opacity="0.1" fill="#010101" d="M13.5,15v1.7025146C13.5,17.1429539,13.1429539,17.5,12.7025146,17.5H11V18h3v-3H13.5z"/>
	<polygon fill="#F3F3F3" points="18.9414063,6 18.7191772,8 17.934082,8 18.2198486,6 	"/>
	<path fill="#CEDC38" d="M5.0585938,6l0.222229,2H6.944397c0.536377-0.5244751,0.8928223-1.2216797,1.005188-2H5.0585938z"/>
	<linearGradient id="SVGID_1_" gradientUnits="userSpaceOnUse" x1="4.9535918" y1="6.2251778" x2="7.4670253" y2="7.3972111">
		<stop  offset="0" style="stop-color:#FFFFFF;stop-opacity:0.2"/>
		<stop  offset="1" style="stop-color:#FFFFFF;stop-opacity:0"/>
	</linearGradient>
	<path fill="url(#SVGID_1_)" d="M5.0585938,6l0.222229,2H6.944397c0.536377-0.5244751,0.8928223-1.2216797,1.005188-2H5.0585938z"/>
	<linearGradient id="SVGID_2_" gradientUnits="userSpaceOnUse" x1="-0.1023636" y1="4.7223496" x2="21.684206" y2="14.8815937">
		<stop  offset="0" style="stop-color:#FFFFFF;stop-opacity:0.2"/>
		<stop  offset="1" style="stop-color:#FFFFFF;stop-opacity:0"/>
	</linearGradient>
	<path fill="url(#SVGID_2_)" d="M23.5,0h-3.6992188c-0.9882908,0-1.8398438,0.7382813-1.9794922,1.7172852L17.3522339,5h-8.402771
		C8.6970215,2.7561646,6.8102417,1,4.5,1C2.0185547,1,0,3.0185547,0,5.5c0,2.4803467,2.0167236,4.4978638,4.4967041,4.4996948
		l1.3577881,12.2214966C5.9677734,23.2353516,6.8232422,24,7.8427734,24h8.3144531c1.0195313,0,1.875-0.7646484,1.9882813-1.7792969
		l1.8515625-16.6655273c0.015625-0.1411133-0.0292969-0.2827148-0.1240234-0.3886719C19.7773438,5.0605469,19.6425781,5,19.5,5
		h-1.1372681l0.4487915-3.1411133C18.8808594,1.3691406,19.3066406,1,19.8007813,1H23.5C23.7763672,1,24,0.7763672,24,0.5
		S23.7763672,0,23.5,0z"/>
</g>
<g>
</g>
<g>
</g>
<g>
</g>
<g>
</g>
<g>
</g>
<g>
</g>
<g>
</g>
<g>
</g>
<g>
</g>
<g>
</g>
<g>
</g>
<g>
</g>
<g>
</g>
<g>
</g>
<g>
</g>
</svg>
